# xmcd CD database file
#
# Track frame offsets:
#	150
#	12173
#	23048
#	35110
#	48377
#	59748
#	73286
#	86381
#	100381
#	113555
#	128346
#	142512
#	155577
#	169425
#	183600
#	197240
#	209759
#	222899
#
# Disc length: 3140 seconds
#
# Revision: 0
# Processed by: cddbd v1.5.1PL0 Copyright (c) Steve Scherf et al.
# Submitted via: CDex 1.51
#
DISCID=090c4212
DTITLE=Nat King Cole - Vocal Jazz
DYEAR=1900
DGENRE=Jazz
TTITLE0=Nature Boy
TTITLE1=This is my Night to Dream
TTITLE2=Put'em in a Box, Tie 'em with a ribbon
TTITLE3=If You Can't Smile and Say Yes
TTITLE4=Markin' Whoopee
TTITLE5=Come To Baby Do
TTITLE6=Gee Baby, ain't I Good to You
TTITLE7=I Just Can't See for Lookin'
TTITLE8=Sweet Lorraine
TTITLE9=This Will Make You Laugh
TTITLE10=Slow Down
TTITLE11=(I Love You) For Sentimental Reasons
TTITLE12=I've Only Myself to Blame
TTITLE13=It's Sentimental Thing to Do
TTITLE14=I Realise Now
TTITLE15=You Call it Madness
TTITLE16=Can you Look me in the Eyes
TTITLE17=Com in out of the Rain
EXTD=
EXTT0=
EXTT1=
EXTT2=
EXTT3=
EXTT4=
EXTT5=
EXTT6=
EXTT7=
EXTT8=
EXTT9=
EXTT10=
EXTT11=
EXTT12=
EXTT13=
EXTT14=
EXTT15=
EXTT16=
EXTT17=
PLAYORDER=
